<?xml version="1.0" encoding="UTF-8" standalone="no"?>
<!-- Created with Inkscape (http://www.inkscape.org/) -->

<svg
   xmlns:dc="http://purl.org/dc/elements/1.1/"
   xmlns:cc="http://creativecommons.org/ns#"
   xmlns:rdf="http://www.w3.org/1999/02/22-rdf-syntax-ns#"
   xmlns:svg="http://www.w3.org/2000/svg"
   xmlns="http://www.w3.org/2000/svg"
   version="1.1"
   width="186.075"
   height="186.075"
   id="svg3290">
  <defs
     id="defs3292" />
  <metadata
     id="metadata3295">
    <rdf:RDF>
      <cc:Work
         rdf:about="">
        <dc:format>image/svg+xml</dc:format>
        <dc:type
           rdf:resource="http://purl.org/dc/dcmitype/StillImage" />
        <dc:title></dc:title>
      </cc:Work>
    </rdf:RDF>
  </metadata>
  <g
     transform="translate(-292.67677,-350.75325)"
     id="layer1">
    <path
       d="m 451.50177,378.00325 c -17.573,-17.572 -40.936,-27.25 -65.787,-27.25 -24.851,0 -48.215,9.678 -65.788,27.25 -17.572,17.573 -27.25,40.937 -27.25,65.788 0,24.851 9.678,48.214 27.25,65.787 17.572,17.573 40.937,27.25 65.788,27.25 24.851,0 48.214,-9.677 65.787,-27.25 17.572,-17.573 27.25,-40.936 27.25,-65.787 0,-24.851 -9.678,-48.215 -27.25,-65.788 z m -4.653,126.922 c -16.33,16.329 -38.041,25.322 -61.134,25.322 -23.093,0 -44.805,-8.993 -61.134,-25.322 -16.329,-16.33 -25.322,-38.041 -25.322,-61.134 0,-23.093 8.993,-44.805 25.322,-61.134 16.329,-16.329 38.041,-25.322 61.134,-25.322 23.093,0 44.804,8.993 61.134,25.322 16.329,16.33 25.322,38.041 25.322,61.134 0,23.093 -8.994,44.804 -25.322,61.134 z"
       id="path3127"
       style="fill:#1d1d1b" />
    <path
       d="m 399.68377,455.78225 c 0,0 0.477,0.554 0.519,0.678 0,0 0.295,0.339 0.338,0.459 l 0.304,0.214 c 0,0 0.147,0.056 0.154,0.105 0,0 0.346,0.429 0.353,0.478 0,0 1.185,1.364 1.305,1.433 0.122,0.069 0.364,0.023 0.498,-0.05 0.134,-0.07 0.448,-0.344 0.507,-0.447 0.059,-0.101 -0.032,-0.235 -0.032,-0.235 l -0.384,-0.697 c 0,0 -0.659,-0.888 -0.731,-0.926 -0.072,-0.04 -0.378,-0.51 -0.437,-0.573 -0.058,-0.063 -0.282,-0.255 -0.322,-0.338 0,0 -0.143,-0.146 -0.167,-0.219 0,0 -0.143,-0.144 -0.18,-0.228 0,0 -0.285,-0.253 -0.323,-0.334 0,0 -0.611,-0.641 -0.631,-0.689 0,0 -0.282,-0.252 -0.32,-0.336 0,0 -0.167,-0.222 -0.322,-0.339 -0.155,-0.117 -0.692,-0.165 -0.855,-0.069 -0.164,0.096 -0.337,0.359 -0.337,0.359 0,0 -0.212,0.37 -0.071,0.504 0.143,0.13 1.109,1.163 1.134,1.25 z"
       id="path3129"
       style="fill:#1d1d1b" />
    <path
       d="m 401.13977,473.18325 c -0.273,0.146 -0.499,0.317 -0.556,0.411 -0.056,0.092 0,0.2 0.103,0.33 0.1,0.129 0.53,0.651 0.57,0.697 0.04,0.047 0.042,0.064 0.103,0.176 0.06,0.113 0.12,0.138 0.187,0.226 0.068,0.089 0.102,0.17 0.273,0.337 0.172,0.169 0.22,0.238 0.37,0.4 0.149,0.162 0.241,0.318 0.358,0.44 0.105,0.108 0.678,0.776 0.717,0.811 0.089,0.121 0.415,0.556 0.484,0.658 0.089,0.132 0.461,0.596 0.588,0.701 0.128,0.105 0.296,0.221 0.394,0.276 0.096,0.058 0.227,0.074 0.339,0.024 0.112,-0.051 0.477,-0.188 0.622,-0.261 0.146,-0.074 0.116,-0.44 0.174,-0.588 0.06,-0.146 -0.433,-0.707 -0.795,-1.092 -0.362,-0.386 -0.511,-0.579 -0.607,-0.677 -0.097,-0.098 -0.159,-0.177 -0.218,-0.247 -0.058,-0.07 -0.354,-0.502 -0.429,-0.627 -0.075,-0.125 -0.118,-0.282 -0.233,-0.384 -0.117,-0.103 -0.835,-0.934 -0.945,-1.004 -0.108,-0.07 -0.214,-0.201 -0.292,-0.285 -0.08,-0.086 -0.18,-0.237 -0.285,-0.32 -0.105,-0.083 -0.138,-0.1 -0.277,-0.143 -0.14,-0.044 -0.369,-0.003 -0.645,0.141 z"
       id="path3131"
       style="fill:#1d1d1b" />
    <path
       d="m 402.93377,462.99525 c -0.472,0.817 -1.015,1.688 -1.015,1.688 0.014,0.178 -0.308,0.497 -0.368,0.639 0,0 -0.129,0.277 -0.164,0.37 0,0 -0.49,1.118 -0.528,1.158 0,0 -0.319,0.636 -0.357,0.676 0,0 -0.435,0.694 -0.43,0.912 0,0.218 0.208,0.489 0.375,0.631 0.167,0.143 0.652,0.078 0.704,0.083 0.052,0.005 0.273,-0.166 0.335,-0.229 0.062,-0.063 0.513,-1.244 0.56,-1.276 0,0 0.799,-1.424 0.899,-1.521 0,0 0.061,-0.489 0.107,-0.52 0,0 0.267,-0.493 0.31,-0.524 0,0 0.436,-1.082 0.618,-1.407 0,0 0.249,-0.316 0.109,-0.463 l -0.224,-0.215 c -0.162,-0.141 -0.755,-0.307 -0.931,-0.002 z"
       id="path3133"
       style="fill:#1d1d1b" />
    <path
       d="m 405.76577,458.65525 c 0.259,0.07 0.357,0.074 0.541,0.085 0.186,0.012 0.464,-0.123 0.567,-0.217 0.103,-0.093 0.169,-0.558 0.238,-0.638 0,0 0.458,-0.926 0.537,-0.995 0,0 0.356,-0.7 0.465,-0.804 0,0 0.26,-0.443 0.322,-0.533 0.062,-0.09 0.066,-0.522 0.115,-0.556 0,0 0.286,-0.523 0.333,-0.555 0,0 0.541,-1.353 0.638,-1.511 0.096,-0.157 0.254,-0.266 0.285,-0.348 0.03,-0.083 -0.187,-0.332 -0.332,-0.404 -0.146,-0.073 -0.552,-0.212 -0.719,-0.178 -0.167,0.034 -0.234,0.155 -0.234,0.155 l -0.549,0.702 c 0,0 -0.393,0.502 -0.447,0.614 -0.054,0.112 -0.238,0.799 -0.289,0.832 0,0 -0.275,0.501 -0.325,0.534 0,0 -0.092,0.188 -0.162,0.268 0,0 -0.433,0.911 -0.502,0.987 0,0 -0.38,0.86 -0.422,0.903 0,0 -0.189,0.356 -0.26,0.433 0,0 -0.099,0.49 -0.101,0.578 0.001,0.089 0.042,0.578 0.301,0.648 z"
       id="path3135"
       style="fill:#1d1d1b" />
    <path
       d="m 394.12477,462.18725 c 0.011,0.231 0.07,0.682 0.07,0.682 0.064,0.142 0.338,0.243 0.526,0.257 l 1.37,-0.202 c 0,0 1.393,-0.164 1.429,-0.213 l 0.67,-0.099 1.243,-0.227 2.071,-0.275 c 0,0 0.438,-0.155 0.512,-0.205 0.073,-0.05 0.366,-0.588 0.369,-0.625 0,-0.038 -0.349,-0.533 -0.438,-0.633 -0.09,-0.101 -0.374,-0.114 -0.374,-0.114 0,0 -1.427,0.125 -1.45,0.173 l -1.06,0.198 -0.384,0.069 c -0.157,0.034 -0.449,0.044 -0.449,0.044 -0.138,0.021 -0.463,0.025 -0.463,0.025 0,0 -2.114,0.302 -2.136,0.348 l -0.467,0.117 c -0.01,0.044 -0.196,0.041 -0.5,0.092 -0.301,0.053 -0.55,0.358 -0.539,0.588 z"
       id="path3137"
       style="fill:#1d1d1b" />
    <path
       d="m 386.91777,449.63425 c 0.201,-0.807 0.626,-1.555 1.289,-2.148 1.12,-1.002 2.655,-1.34 4.13,-1.057 0.973,-0.097 1.879,-0.13 2.545,-0.278 -0.481,-1.702 -1.007,-3.44 -1.579,-5.207 -0.825,-2.551 -1.738,-5.153 -2.729,-7.767 h -6.531 c -0.451,5.599 -5.436,10.026 -11.504,10.026 -6.068,0 -11.053,-4.427 -11.504,-10.026 h -16.099 c -0.241,0.639 -0.478,1.278 -0.71,1.919 0.931,0.265 7.877,2.313 13.41,5.968 5.499,3.631 19.507,6.572 29.282,8.57 z"
       id="path3139"
       style="fill:#1d1d1b" />
    <path
       d="m 395.94677,466.11625 c 0,0 -0.508,-0.535 -0.515,-0.583 0,0 -1.122,-1.375 -1.295,-1.456 -0.171,-0.082 -0.4,0.011 -0.539,0.073 -0.141,0.063 -0.423,0.339 -0.519,0.451 -0.094,0.111 -0.01,0.159 0.032,0.236 0.037,0.077 0.376,0.626 0.39,0.697 0.015,0.07 0.309,0.514 0.36,0.585 0.052,0.071 0.97,0.962 0.981,1.022 0.012,0.061 0.152,0.158 0.174,0.232 0.021,0.072 0.486,0.504 0.51,0.552 0.024,0.049 0.301,0.267 0.326,0.336 0.025,0.067 0.462,0.538 0.486,0.582 0.024,0.043 0.353,0.464 0.498,0.567 0.146,0.104 0.382,0.139 0.448,0.194 0.066,0.055 0.119,0.081 0.265,0.056 0.146,-0.024 0.54,-0.208 0.658,-0.435 0.118,-0.227 0.203,-0.396 0.074,-0.505 -0.117,-0.097 -0.865,-0.887 -0.971,-0.999 0.01,0.006 -0.214,-0.251 -0.338,-0.359 -0.138,-0.121 -0.187,-0.25 -0.168,-0.207 0.017,0.04 -0.342,-0.442 -0.361,-0.474 -0.065,-0.07 -0.496,-0.565 -0.496,-0.565 z"
       id="path3141"
       style="fill:#1d1d1b" />
    <path
       d="m 372.53977,442.44125 c 5.943,0 10.778,-4.526 10.778,-10.089 0,-5.563 -4.835,-10.089 -10.778,-10.089 -5.943,0 -10.778,4.526 -10.778,10.089 0,5.563 4.835,10.089 10.778,10.089 z"
       id="path3143"
       style="fill:#1d1d1b" />
    <path
       d="m 386.94477,451.91525 c -12.145,-1.539 -30.604,-5.643 -38.275,-7.775 -4.245,-1.18 -6.864,0.764 -8.074,2.071 -0.207,0.72 -0.409,1.436 -0.601,2.146 -0.142,0.522 -0.279,1.042 -0.413,1.558 -0.947,3.667 -1.685,7.174 -2.144,10.368 -1.106,7.686 -0.313,12.348 2.236,13.129 1.201,0.368 2.373,0.554 3.483,0.554 4.536,0 7.753,-3.01 11.161,-6.197 3.585,-3.354 7.293,-6.822 12.776,-6.822 3.504,0 6.237,2.646 9.131,5.449 0.363,0.352 0.732,0.708 1.107,1.065 l 11.437,-12.776 c -0.17,-0.136 -0.335,-0.28 -0.491,-0.439 -0.674,-0.689 -1.115,-1.497 -1.333,-2.331 z"
       id="path3145"
       style="fill:#1d1d1b" />
    <path
       d="m 418.35377,456.81725 c 0.134,0.086 0.619,0.23 0.724,0.16 0.104,-0.069 0.146,-0.133 0.238,-0.161 0.093,-0.026 0.425,-0.62 0.57,-0.713 0.147,-0.093 0.385,-0.539 0.464,-0.625 0.082,-0.087 0.2,-0.585 0.266,-0.649 0.065,-0.064 0.422,-0.862 0.55,-0.999 0.13,-0.139 0.243,-0.425 0.318,-0.542 0.074,-0.116 0.121,-0.291 0.21,-0.456 0.089,-0.164 0.351,-0.8 0.444,-0.911 0.093,-0.112 0.181,-0.395 0.213,-0.457 0.031,-0.061 0.159,-0.263 0.213,-0.458 0.053,-0.194 -0.104,-0.406 -0.104,-0.531 0,-0.124 -0.188,-0.153 -0.224,-0.21 -0.038,-0.057 -0.624,-0.111 -0.757,-0.087 -0.132,0.024 -0.343,0.307 -0.409,0.43 -0.067,0.125 -0.586,1.145 -0.55,0.998 0.037,-0.146 -0.176,0.517 -0.266,0.651 -0.091,0.133 -0.424,0.534 -0.446,0.627 -0.021,0.094 0.031,0.073 -0.042,0.186 -0.071,0.111 -0.21,0.504 -0.38,0.726 -0.171,0.222 -0.936,2.17 -1.065,2.271 -0.129,0.103 -0.322,0.225 -0.295,0.355 0.028,0.131 0.194,0.311 0.328,0.395 z"
       id="path3147"
       style="fill:#1d1d1b" />
    <path
       d="m 420.75177,458.12825 c -0.125,0.018 -0.456,0.12 -0.665,0.321 -0.21,0.201 -0.243,0.411 -0.224,0.522 0.02,0.11 0.121,0.259 0.231,0.314 0.109,0.055 0.335,0.264 0.51,0.262 0.176,-0.001 1.176,-0.052 1.422,-0.122 0.245,-0.069 0.857,-0.143 1.044,-0.154 0.185,-0.012 1.05,-0.084 1.122,-0.089 0.072,-0.006 0.542,0.028 0.675,-0.01 0.133,-0.037 1.351,-0.182 1.573,-0.261 0.22,-0.081 0.302,-0.032 0.461,-0.094 0.159,-0.063 0.324,0.007 0.491,-0.071 0.167,-0.077 0.412,-0.251 0.519,-0.377 0.107,-0.126 0.059,-0.626 0.01,-0.755 -0.054,-0.13 -0.316,-0.227 -0.499,-0.244 l -0.419,0.019 c -0.115,0.013 -0.57,0.047 -0.697,0.087 -0.127,0.041 -0.64,0.046 -0.508,0.049 0.132,0.003 -1.673,0.199 -1.784,0.227 -0.11,0.028 -0.564,0.109 -0.639,0.112 -0.075,0.003 -0.529,0.082 -0.583,0.065 -0.055,-0.018 -0.928,0.07 -0.977,0.069 -0.047,0 -0.932,0.113 -1.058,0.13 z"
       id="path3149"
       style="fill:#1d1d1b" />
    <path
       d="m 423.06677,464.67125 -0.186,-0.226 c 0,0 -0.222,-0.34 -0.272,-0.335 0,0 -0.424,-0.466 -0.367,-0.396 0.059,0.07 -0.559,-0.694 -0.498,-0.611 0.062,0.085 -0.445,-0.449 -0.56,-0.617 -0.116,-0.167 -0.258,-0.4 -0.491,-0.67 -0.234,-0.268 -0.457,-0.54 -0.584,-0.696 -0.128,-0.155 -0.392,-0.273 -0.392,-0.273 -0.096,-0.032 -0.329,-0.081 -0.437,-0.041 -0.107,0.039 -0.56,0.434 -0.603,0.473 -0.169,0.149 -0.068,0.422 -0.041,0.514 0.026,0.092 0.507,0.748 0.735,0.965 0.227,0.216 0.496,0.58 0.604,0.672 0.108,0.092 0.559,0.784 0.642,0.868 0.084,0.084 0.157,0.294 0.232,0.382 0.074,0.087 0.799,0.844 0.938,0.997 0.139,0.153 0.234,0.254 0.292,0.283 0.058,0.029 0.201,0.261 0.282,0.318 0.082,0.056 0.168,0.122 0.277,0.143 0.108,0.019 0.49,-0.103 0.641,-0.143 0.153,-0.041 0.356,-0.166 0.43,-0.242 0.073,-0.076 0.092,-0.355 0.027,-0.496 -0.067,-0.139 -0.389,-0.516 -0.29,-0.405 0.099,0.11 -0.338,-0.394 -0.379,-0.464 z"
       id="path3151"
       style="fill:#1d1d1b" />
    <path
       d="m 427.00777,462.55925 c 0,0 -0.065,0.511 -0.114,0.544 0,0 -0.279,0.516 -0.327,0.547 0,0 -0.458,1.13 -0.649,1.471 0,0 -0.261,0.33 -0.115,0.484 l 0.233,0.224 c 0.167,0.143 0.788,0.316 0.973,-10e-4 0.496,-0.854 1.066,-1.764 1.066,-1.764 -0.014,-0.186 0.322,-0.521 0.386,-0.669 0,0 0.136,-0.289 0.173,-0.387 0,0 0.515,-1.169 0.555,-1.211 0,0 0.336,-0.664 0.376,-0.707 0,0 0.457,-0.724 0.453,-0.952 0,-0.228 -0.217,-0.51 -0.391,-0.659 -0.174,-0.149 -0.68,-0.078 -0.735,-0.084 l 10e-4,-10e-4 c -0.054,-0.004 -0.288,0.174 -0.352,0.24 -0.065,0.067 -0.54,1.302 -0.588,1.334 -10e-4,0 -0.841,1.49 -0.945,1.591 z"
       id="path3153"
       style="fill:#1d1d1b" />
    <path
       d="m 406.64277,464.34525 0.18,0.218 c 0,0 0.215,0.332 0.264,0.325 0,0 0.413,0.452 0.356,0.385 -0.057,-0.068 0.542,0.674 0.483,0.592 -0.06,-0.081 0.434,0.435 0.545,0.597 0.111,0.162 0.249,0.391 0.474,0.65 0.227,0.26 0.444,0.524 0.569,0.676 0.124,0.15 0.382,0.263 0.382,0.263 0.094,0.031 0.324,0.076 0.432,0.035 0.107,-0.04 0.561,-0.432 0.604,-0.471 0.169,-0.149 0.074,-0.416 0.05,-0.505 -0.025,-0.089 -0.49,-0.726 -0.713,-0.936 -0.221,-0.209 -0.48,-0.561 -0.585,-0.651 -0.105,-0.09 -0.541,-0.762 -0.623,-0.843 -0.082,-0.082 -0.15,-0.286 -0.222,-0.371 -0.073,-0.085 -0.778,-0.817 -0.913,-0.965 -0.135,-0.148 -0.228,-0.247 -0.285,-0.274 -0.057,-0.027 -0.195,-0.253 -0.274,-0.308 -0.08,-0.054 -0.164,-0.117 -0.271,-0.136 -0.107,-0.018 -0.488,0.107 -0.638,0.149 -0.151,0.041 -0.355,0.166 -0.429,0.242 -0.074,0.075 -0.097,0.35 -0.034,0.487 0.063,0.136 0.377,0.5 0.28,0.393 -0.096,-0.108 0.328,0.38 0.368,0.448 z"
       id="path3155"
       style="fill:#1d1d1b" />
    <path
       d="m 415.63877,461.49125 -0.505,0.664 c 0,0 -0.361,0.475 -0.409,0.582 -0.049,0.108 -0.208,0.762 -0.256,0.794 0,0 -0.249,0.477 -0.294,0.505 0,0 -0.084,0.18 -0.148,0.256 0,0 -0.39,0.866 -0.454,0.937 0,0 -0.34,0.818 -0.379,0.86 0,0 -0.172,0.338 -0.237,0.411 0,0 -0.083,0.468 -0.083,0.552 0,0.084 0.051,0.556 0.297,0.626 0.247,0.071 0.34,0.078 0.515,0.092 0.175,0.014 0.436,-0.11 0.531,-0.198 0.097,-0.087 0.149,-0.533 0.212,-0.607 0,0 0.414,-0.881 0.487,-0.944 0,0 0.321,-0.666 0.422,-0.764 0,0 0.238,-0.421 0.294,-0.506 0.056,-0.084 0.051,-0.501 0.097,-0.532 0,0 0.259,-0.498 0.303,-0.527 0,0 0.482,-1.289 0.57,-1.438 0.088,-0.149 0.235,-0.251 0.262,-0.33 0.028,-0.078 -0.184,-0.321 -0.324,-0.393 -0.14,-0.074 -0.527,-0.215 -0.684,-0.185 -0.157,0.031 -0.217,0.145 -0.217,0.145 z"
       id="path3157"
       style="fill:#1d1d1b" />
    <path
       d="m 408.06777,459.68725 c -0.197,0.063 -0.701,0.562 -0.703,0.716 0,0.155 0.172,0.536 0.225,0.591 0.052,0.055 0.298,0.115 0.363,0.127 0.064,0.013 0.853,-0.245 0.973,-0.2 0.121,0.047 1.76,-0.229 1.891,-0.293 0.131,-0.064 0.887,-0.236 0.97,-0.201 0.083,0.036 0.56,-0.114 0.694,-0.095 0.134,0.018 1.789,-0.162 1.977,-0.303 0.188,-0.142 0.229,-0.31 0.216,-0.454 -0.014,-0.143 -0.233,-0.613 -0.385,-0.689 -0.152,-0.077 -0.742,0.027 -0.855,-0.016 -0.112,-0.045 -1.092,0.065 -1.256,0.152 -0.163,0.087 -0.255,0.076 -0.338,0.099 -0.083,0.022 -0.632,-0.01 -1.518,0.153 -0.886,0.164 -1.424,0.366 -1.645,0.356 -0.219,-0.008 -0.415,-0.007 -0.609,0.057 z"
       id="path3159"
       style="fill:#1d1d1b" />
    <path
       d="m 411.74877,453.90425 c 0.133,0.127 0.604,0.66 0.604,0.66 l 0.436,0.54 c 0.073,0.088 0.136,0.214 0.136,0.214 l 0.07,0.102 0.075,0.188 0.156,0.189 c 0.035,-0.024 0.887,0.986 0.938,0.98 l 0.292,0.278 c 0.043,-0.015 0.211,0.251 0.282,0.312 0.07,0.061 0.203,0.117 0.276,0.138 0.07,0.021 0.329,0.018 0.475,-0.026 0.145,-0.044 0.417,-0.258 0.367,-0.215 -0.05,0.043 0.316,-0.214 0.352,-0.32 0.035,-0.106 -0.167,-0.406 -0.167,-0.406 l -0.522,-0.659 c -0.051,-0.062 -0.041,-0.045 -0.081,-0.115 0,0 -0.158,-0.191 -0.187,-0.221 -0.029,-0.031 0,-0.053 -0.045,-0.09 -0.041,-0.038 -0.495,-0.513 -0.495,-0.513 -0.043,0.014 -0.783,-0.941 -0.842,-0.944 l -0.316,-0.381 -0.402,-0.568 c 0,0 -0.63,-0.708 -0.674,-0.777 -0.044,-0.071 -0.094,-0.116 -0.139,-0.17 -0.043,-0.054 -0.206,-0.084 -0.252,-0.098 -0.048,-0.014 -0.344,-0.053 -0.437,-0.037 -0.093,0.017 -0.249,0.018 -0.389,0.136 -0.14,0.118 -0.477,0.532 -0.249,0.852 0.228,0.32 0.606,0.823 0.738,0.951 z"
       id="path3161"
       style="fill:#1d1d1b" />
    <path
       d="m 413.87577,471.58425 c -0.183,0.067 -0.557,0.371 -0.6,0.436 -0.043,0.067 -0.01,0.289 0,0.346 0.011,0.058 0.649,0.575 0.646,0.692 0,0.116 1.014,1.308 1.146,1.385 0.129,0.076 0.652,0.608 0.646,0.689 -0.01,0.08 0.37,0.397 0.406,0.514 0.036,0.115 0.947,1.361 1.193,1.45 0.246,0.087 0.461,0.048 0.625,-0.023 0.163,-0.072 0.623,-0.452 0.649,-0.607 0.026,-0.155 -0.346,-0.581 -0.342,-0.69 0,-0.108 -0.539,-0.845 -0.711,-0.938 -0.17,-0.092 -0.197,-0.17 -0.259,-0.229 -0.063,-0.057 -0.256,-0.51 -0.823,-1.147 -0.567,-0.638 -1.032,-0.98 -1.114,-1.161 -0.082,-0.181 -0.167,-0.336 -0.323,-0.466 -0.158,-0.129 -0.959,-0.316 -1.141,-0.251 z"
       id="path3163"
       style="fill:#1d1d1b" />
    <path
       d="m 404.45877,481.02225 c 0.122,-0.27 -0.084,-0.461 -0.233,-0.627 -0.15,-0.167 -1.006,-0.107 -1.135,-0.115 -0.129,-0.008 -0.706,-0.012 -0.82,-0.01 -0.114,0.002 -1.273,0.218 -1.425,0.193 0,0 -0.426,0.098 -0.538,0.088 0,0 -0.991,0.133 -1.203,0.144 -0.213,0.011 -0.271,0.099 -0.399,0.109 -0.127,0.01 -0.4,0.065 -0.684,0.052 -0.283,-0.013 -0.563,0.089 -0.876,0.107 -0.312,0.018 -0.417,0.246 -0.651,0.434 -0.234,0.189 -0.063,0.59 0.108,0.73 0.171,0.141 0.293,0.289 0.697,0.238 0.404,-0.05 1.155,-0.184 1.411,-0.197 0.257,-0.014 0.301,-0.034 0.55,-0.083 0.25,-0.049 0.749,-0.082 1.01,-0.074 0.261,0.006 0.686,-0.085 0.875,-0.108 0.189,-0.025 2.3,-0.225 2.674,-0.433 0.376,-0.208 0.517,-0.179 0.639,-0.448 z"
       id="path3165"
       style="fill:#1d1d1b" />
    <path
       d="m 421.62677,476.48125 c 0.052,0.006 0.271,-0.163 0.333,-0.227 0.06,-0.063 0.489,-1.253 0.534,-1.284 0,0 0.774,-1.431 0.871,-1.527 0,0 0.051,-0.496 0.096,-0.526 0,0 0.257,-0.497 0.302,-0.527 0,0 0.415,-1.089 0.59,-1.417 0,0 0.244,-0.316 0.1,-0.469 l -0.229,-0.221 c -0.165,-0.143 -0.764,-0.323 -0.934,-0.017 -0.457,0.822 -0.983,1.695 -0.983,1.695 0.017,0.18 -0.298,0.501 -0.356,0.643 0,0 -0.123,0.279 -0.157,0.373 0,0 -0.468,1.126 -0.504,1.167 0,0 -0.309,0.639 -0.347,0.68 0,0 -0.421,0.695 -0.413,0.917 0.01,0.222 0.219,0.5 0.39,0.647 0.169,0.145 0.655,0.087 0.707,0.093 z"
       id="path3167"
       style="fill:#1d1d1b" />
    <path
       d="m 425.37877,484.10125 c 0,0 -0.6,-0.809 -0.665,-0.844 -0.065,-0.035 -0.345,-0.463 -0.397,-0.521 -0.053,-0.057 -0.256,-0.23 -0.294,-0.307 0,0 -0.13,-0.133 -0.152,-0.198 0,0 -0.13,-0.131 -0.164,-0.208 0,0 -0.26,-0.23 -0.293,-0.305 0,0 -0.557,-0.583 -0.575,-0.626 0,0 -0.257,-0.229 -0.292,-0.306 0,0 -0.153,-0.202 -0.292,-0.308 -0.142,-0.107 -0.63,-0.15 -0.778,-0.063 -0.15,0.087 -0.307,0.326 -0.307,0.326 0,0 -0.195,0.336 -0.065,0.458 0.13,0.123 1.01,1.061 1.032,1.14 0,0 0.433,0.504 0.473,0.616 0,0 0.268,0.309 0.307,0.417 l 0.278,0.195 c 0,0 0.133,0.051 0.139,0.095 0,0 0.316,0.391 0.321,0.434 0,0 1.079,1.24 1.19,1.302 0.11,0.063 0.331,0.021 0.453,-0.044 0.123,-0.065 0.408,-0.315 0.462,-0.408 0.054,-0.092 -0.029,-0.213 -0.029,-0.213 l -0.352,-0.632 z"
       id="path3169"
       style="fill:#1d1d1b" />
    <path
       d="m 396.08577,472.41625 c 0.012,-0.003 0.012,-0.005 0.01,-0.006 -0.036,0.012 -0.047,0.016 -0.01,0.006 z"
       id="path3171"
       style="fill:#1d1d1b" />
    <path
       d="m 419.06777,480.91325 c -0.051,-0.071 -0.574,-0.137 -0.715,-0.159 -0.143,-0.022 -0.177,0.105 -0.228,0.158 -0.049,0.054 -0.491,0.794 -0.555,0.889 -0.063,0.096 -0.562,1.12 -0.654,1.265 -0.09,0.145 -0.234,0.431 -0.304,0.533 -0.07,0.102 -0.08,0.187 -0.153,0.271 -0.072,0.084 -0.278,0.613 -0.316,0.718 -0.04,0.108 -0.455,1.045 -0.543,1.171 -0.087,0.125 -0.293,0.547 -0.337,0.72 -0.045,0.169 -0.035,0.361 0.022,0.467 0.055,0.106 0.176,0.365 0.302,0.452 0.127,0.086 0.639,0.107 0.746,0.088 0.107,-0.018 0.308,-0.326 0.381,-0.427 0.072,-0.101 0.092,-0.286 0.185,-0.453 0.091,-0.167 0.202,-0.34 0.305,-0.536 0.102,-0.195 0.179,-0.348 0.197,-0.459 0.02,-0.112 0.125,-0.339 0.16,-0.435 0.035,-0.097 0.241,-0.379 0.309,-0.555 0.069,-0.174 0.33,-0.608 0.338,-0.719 0.01,-0.11 0.248,-0.575 0.345,-0.741 0.098,-0.166 0.568,-1.311 0.609,-1.453 0.041,-0.142 0.197,-0.298 0.25,-0.406 0.048,-0.104 -0.294,-0.317 -0.344,-0.389 z"
       id="path3173"
       style="fill:#1d1d1b" />
    <path
       d="m 429.90177,476.90425 c -0.069,-0.005 -0.768,-0.026 -0.915,-0.041 -0.146,-0.016 -0.647,-0.014 -0.787,-0.009 -0.14,0.005 -0.82,0.235 -0.929,0.233 -0.108,-0.002 -0.545,0.037 -0.654,0.041 -0.11,0.005 -0.259,0.005 -0.33,0.022 -0.071,0.017 -0.231,0.03 -0.315,0.026 -0.083,-0.004 -0.421,0.079 -0.529,0.105 -0.108,0.028 -0.593,0.118 -0.719,0.136 -0.125,0.018 -1.1,0.146 -1.186,0.147 -0.086,0.003 -0.39,0.067 -0.526,0.094 -0.136,0.025 -0.337,0.265 -0.468,0.381 -0.132,0.115 0.021,0.884 0.109,0.935 0.089,0.049 0.3,0.177 0.384,0.147 0.084,-0.031 0.134,-0.056 0.196,-0.072 0.06,-0.017 0.337,-0.075 0.523,-0.094 0.187,-0.02 0.514,-0.028 0.656,-0.042 0.142,-0.014 0.431,-0.065 0.538,-0.086 0.106,-0.021 0.38,-0.115 0.496,-0.104 0.117,0.009 0.548,-0.033 0.677,-0.049 0.128,-0.016 0.67,-0.082 0.852,-0.113 0.181,-0.032 0.726,-0.137 0.941,-0.156 0.215,-0.02 1.933,-0.175 2.129,-0.27 0.196,-0.095 0.233,-0.354 0.247,-0.479 0.014,-0.125 -0.085,-0.559 -0.138,-0.655 -0.054,-0.097 -0.183,-0.093 -0.252,-0.097 z"
       id="path3175"
       style="fill:#1d1d1b" />
    <path
       d="m 444.72677,384.77725 c -15.763,-15.763 -36.721,-24.443 -59.013,-24.443 -22.292,0 -43.25,8.681 -59.013,24.443 -15.762,15.763 -24.443,36.721 -24.443,59.013 0,22.292 8.681,43.25 24.444,59.013 15.762,15.762 36.72,24.443 59.013,24.443 22.292,0 43.25,-8.681 59.013,-24.443 15.762,-15.764 24.443,-36.721 24.443,-59.013 0,-22.291 -8.681,-43.249 -24.444,-59.013 z m 4.761,81.228 c 0.767,0.705 1.325,1.494 0.384,4.032 -1.481,3.992 -6.684,10.132 -10.482,14.616 -0.189,0.223 -0.126,0.587 10e-4,1.16 0.138,0.624 0.294,1.332 -0.156,1.923 -1.282,1.684 -3.615,2.204 -5.87,2.707 -1.274,0.284 -2.477,0.552 -3.408,1.011 -1.071,0.529 -1.799,1.542 -2.502,2.521 -0.627,0.872 -1.276,1.774 -2.169,2.335 -0.449,0.282 -0.953,0.418 -1.542,0.418 -0.651,0 -1.302,-0.163 -1.991,-0.335 -0.677,-0.169 -1.375,-0.344 -2.055,-0.344 -0.295,0 -0.564,0.032 -0.823,0.097 -0.692,0.175 -1.548,0.647 -2.376,1.103 -1.046,0.576 -2.128,1.171 -3.107,1.325 -0.466,0.073 -0.956,0.109 -1.497,0.109 -1.382,0 -2.847,-0.24 -4.263,-0.471 -1.5,-0.245 -3.048,-0.5 -4.431,-0.447 -1.453,0.055 -2.445,0.483 -3.496,0.938 -1.099,0.475 -2.235,0.966 -3.865,0.966 -0.1,0 -0.201,-0.002 -0.305,-0.006 -1.173,-0.042 -3.301,-0.197 -4.843,-0.35 -0.375,-0.037 -0.764,-0.055 -1.175,-0.074 -1.025,-0.047 -2.085,-0.096 -2.959,-0.468 -5.239,-2.224 -5.536,-2.224 -7.468,-2.227 -0.291,0 -0.616,-10e-4 -0.997,-0.008 -1.575,-0.031 -2.709,-1.111 -3.911,-2.255 -1.005,-0.958 -2.146,-2.043 -3.708,-2.666 -3.439,-1.371 -10.647,-3.473 -10.72,-3.493 l -0.727,-0.212 17.82,-19.906 c -0.382,-0.364 -0.758,-0.726 -1.128,-1.084 -2.906,-2.815 -5.415,-5.245 -8.625,-5.245 -5.196,0 -8.797,3.369 -12.28,6.626 -3.36,3.144 -6.834,6.393 -11.656,6.393 -1.183,0 -2.426,-0.196 -3.696,-0.585 -3.017,-0.924 -3.94,-5.61 -2.742,-13.927 0.369,-2.562 0.939,-5.407 1.677,-8.436 -0.74,0.314 -1.662,0.364 -2.439,0.402 l -0.093,0.004 c -0.094,0.005 -0.187,0.007 -0.278,0.007 -0.772,0 -1.468,-0.164 -2.206,-0.337 l -0.088,-0.021 c -0.593,-0.139 -1.324,-0.496 -1.785,-0.787 -0.302,-0.191 -0.521,-0.433 -0.732,-0.667 -0.101,-0.112 -0.205,-0.226 -0.319,-0.337 -0.297,-0.288 -0.551,-0.614 -0.797,-0.931 l -0.098,-0.125 c -0.528,-0.674 -1.028,-1.388 -1.489,-2.06 -0.085,-0.125 -0.2,-0.245 -0.321,-0.373 -0.227,-0.239 -0.475,-0.506 -0.546,-0.838 -1.932,-0.491 -3.843,-2.396 -5.125,-5.122 -1.35,-2.87 -1.659,-5.85 -0.787,-7.592 l 0.044,-0.089 0.094,0.034 c 0.656,0.239 1.211,0.457 1.718,0.817 -0.01,-0.317 0.038,-0.618 0.081,-0.912 l 0.031,-0.213 0.157,0.143 c 0.539,0.508 1.161,1.114 1.767,1.813 0.011,-0.235 0.036,-0.481 0.06,-0.721 l 0.022,-0.218 0.164,0.146 c 0.74,0.66 1.468,1.705 1.828,2.592 0.037,-0.25 0.088,-0.52 0.206,-0.768 l 0.098,-0.208 0.103,0.204 c 0.539,1.063 0.835,1.883 1.06,2.973 0.077,-0.208 0.183,-0.433 0.34,-0.604 l 0.103,-0.111 0.077,0.13 c 0.854,1.442 0.688,2.497 0.526,3.517 -0.069,0.439 -0.141,0.893 -0.125,1.367 l -0.112,0.004 -0.114,0.14 c 0,0 0,0 0,0 0.035,0.751 -0.01,1.17 -0.036,1.477 -0.032,0.326 -0.051,0.522 0.038,0.898 0.173,0.74 0.588,1.412 1.034,2.092 l 0.036,0.055 c 0.497,0.757 1.009,1.54 1.732,2.04 0.525,0.364 1.206,0.607 1.917,0.684 0.724,0.079 1.466,-0.103 2.186,-0.277 l 0.044,-0.01 c 0.873,-0.211 1.744,-0.527 2.587,-0.939 0.043,-0.021 0.099,-0.057 0.155,-0.093 2.396,-8.962 6.098,-19.196 10.369,-28.418 1.81,-3.908 5.174,-10.705 8.921,-15.969 -0.715,-0.673 -1.876,-0.994 -2.462,-1.294 -1.525,-0.779 -11.382,-6.657 -3.432,-11.716 -0.98,3.18 -1.743,8.583 8.677,9.508 2.129,-2.345 4.287,-3.9 6.279,-3.922 l 0.043,0 c 1.707,0 3.712,1.177 5.909,3.383 10.585,-2.556 8.458,-7.154 6.931,-10.168 8.706,3.695 0.422,11.463 -0.952,12.478 -1.186,0.876 -2.433,1.125 -2.316,2.083 2.963,4.088 6.138,9.673 9.315,16.498 1.095,2.351 2.14,4.745 3.126,7.149 1.636,-1.448 4.144,-3.524 7.323,-5.707 5.465,-3.751 13.076,-15.455 18.291,-23.555 -0.298,-0.318 -0.551,-0.678 -0.742,-1.082 -0.628,-1.333 -0.458,-2.819 0.309,-4.046 0.336,-1.35 0.774,-2.53 0.5,-3.185 -0.521,-1.245 -1.778,-2.755 -1.017,-2.997 1.079,-0.342 2.717,0.972 3.865,3.011 1.158,-1.506 2.549,-2.453 3.332,-2.188 0.711,0.24 0.707,1.409 0.086,2.836 0.962,-0.811 1.901,-1.222 2.459,-0.992 0.722,0.298 0.583,1.574 -0.248,3.061 0.029,0.044 0.062,0.088 0.09,0.134 0.639,-0.362 1.225,-0.476 1.579,-0.246 0.653,0.423 0.278,1.842 -0.836,3.169 -0.105,0.125 -0.214,0.244 -0.324,0.358 -0.4,1.37 -1.478,2.599 -3.045,3.249 -1.346,0.56 -2.789,0.581 -4.025,0.167 -5.801,10.838 -16.441,26.924 -21.076,33.066 -1.422,1.886 -2.149,3.932 -2.506,5.741 0.743,2.228 1.419,4.422 2.024,6.558 0.036,-0.022 0.077,-0.042 0.108,-0.067 1.068,-0.876 2.156,-2.501 2.648,-1.898 0.553,0.678 0.182,2.017 -0.822,3.391 l 49.486,-21.163 0.175,0.062 c 0.115,0.041 2.833,1.069 1.877,7.036 -0.112,0.697 -0.294,1.693 -0.504,2.846 -0.594,3.255 -1.955,10.707 -1.504,12.061 0.535,-0.262 1.063,-0.393 1.579,-0.393 1.143,0 1.827,0.648 1.856,0.675 l 0.161,0.156 -0.017,0.224 c -0.128,1.68 -0.387,3.704 -0.662,5.847 -0.456,3.564 -0.973,7.605 -0.92,10.551 0.011,0.347 0.158,0.499 0.465,0.781 z"
       id="path3177"
       style="fill:#1d1d1b" />
    <path
       d="m 434.79577,466.26525 -1.311,0.164 c 0,0 -1.332,0.13 -1.367,0.174 l -0.641,0.08 -1.19,0.19 -1.98,0.221 c 0,0 -0.42,0.137 -0.493,0.181 -0.071,0.044 -0.366,0.536 -0.37,0.572 0,0.033 0.317,0.494 0.398,0.589 0.082,0.093 0.353,0.111 0.353,0.111 0,0 1.362,-0.095 1.386,-0.138 l 1.016,-0.167 0.367,-0.058 c 0.151,-0.029 0.429,-0.034 0.429,-0.034 0.132,-0.017 0.44,-0.017 0.44,-0.017 0,0 2.023,-0.245 2.045,-0.287 l 0.448,-0.1 c 0.01,-0.041 0.188,-0.034 0.478,-0.078 0.29,-0.042 0.535,-0.319 0.532,-0.532 0,-0.213 -0.046,-0.629 -0.046,-0.629 -0.058,-0.129 -0.316,-0.227 -0.494,-0.242 z"
       id="path3179"
       style="fill:#1d1d1b" />
    <path
       d="m 430.14077,473.27925 c 0,0 -0.51,-0.574 -0.555,-0.702 0,0 -0.317,-0.352 -0.362,-0.477 l -0.327,-0.221 c 0,0 -0.157,-0.058 -0.164,-0.109 0,0 -0.372,-0.445 -0.378,-0.495 0,0 -1.269,-1.415 -1.399,-1.485 -0.129,-0.07 -0.391,-0.022 -0.536,0.053 -0.145,0.075 -0.484,0.363 -0.548,0.469 -0.063,0.107 0.034,0.245 0.034,0.245 l 0.41,0.724 c 0,0 0.706,0.92 0.782,0.961 0.077,0.039 0.405,0.528 0.468,0.593 0.062,0.066 0.301,0.264 0.345,0.351 0,0 0.154,0.151 0.178,0.227 0,0 0.153,0.15 0.194,0.236 0,0 0.306,0.263 0.345,0.348 0,0 0.655,0.664 0.677,0.713 0,0 0.303,0.262 0.343,0.349 0,0 0.178,0.23 0.345,0.351 0.166,0.121 0.744,0.168 0.92,0.067 0.176,-0.1 0.364,-0.375 0.364,-0.375 0,0 0.231,-0.386 0.078,-0.524 -0.154,-0.138 -1.188,-1.209 -1.214,-1.299 z"
       id="path3181"
       style="fill:#1d1d1b" />
    <path
       d="m 421.76177,469.24325 c 0.208,-0.068 0.744,-0.602 0.746,-0.767 0,-0.166 -0.18,-0.571 -0.235,-0.631 -0.055,-0.058 -0.316,-0.121 -0.384,-0.134 -0.069,-0.014 -0.904,0.265 -1.032,0.215 -0.127,-0.049 -1.866,0.252 -2.005,0.321 -0.138,0.068 -0.941,0.253 -1.029,0.217 -0.086,-0.038 -0.593,0.123 -0.735,0.104 -0.143,-0.019 -1.898,0.179 -2.098,0.33 -0.198,0.152 -0.244,0.332 -0.23,0.485 0.012,0.152 0.244,0.653 0.405,0.736 0.16,0.081 0.787,-0.034 0.906,0.014 0.119,0.046 1.158,-0.075 1.331,-0.168 0.174,-0.092 0.271,-0.082 0.36,-0.106 0.089,-0.024 0.669,0.008 1.61,-0.169 0.938,-0.178 1.51,-0.394 1.743,-0.386 0.233,0.009 0.439,0.007 0.647,-0.061 z"
       id="path3183"
       style="fill:#1d1d1b" />
    <path
       d="m 396.82177,478.29225 c 0.022,-0.112 0.135,-0.334 0.172,-0.43 0.037,-0.095 0.251,-0.37 0.325,-0.541 0.074,-0.172 0.347,-0.595 0.359,-0.707 0.012,-0.112 0.264,-0.566 0.366,-0.729 0.103,-0.162 0.606,-1.292 0.653,-1.431 0.045,-0.141 0.206,-0.29 0.261,-0.394 0.055,-0.105 -0.279,-0.34 -0.327,-0.416 -0.048,-0.076 -0.567,-0.171 -0.708,-0.203 -0.14,-0.032 -0.18,0.095 -0.231,0.146 -0.05,0.052 -0.514,0.772 -0.58,0.865 -0.067,0.092 -0.595,1.097 -0.691,1.238 -0.095,0.142 -0.247,0.422 -0.32,0.521 -0.074,0.099 -0.086,0.183 -0.161,0.264 -0.074,0.081 -0.295,0.604 -0.337,0.708 -0.042,0.106 -0.485,1.028 -0.577,1.149 -0.091,0.121 -0.31,0.536 -0.36,0.706 -0.049,0.169 -0.045,0.363 0.01,0.473 0.052,0.111 0.163,0.38 0.288,0.474 0.124,0.096 0.631,0.146 0.738,0.133 0.107,-0.013 0.317,-0.311 0.393,-0.408 0.075,-0.098 0.102,-0.284 0.198,-0.447 0.098,-0.162 0.212,-0.33 0.321,-0.521 0.107,-0.188 0.187,-0.338 0.211,-0.45 z"
       id="path3185"
       style="fill:#1d1d1b" />
    <path
       d="m 405.31477,482.37225 c -0.055,-0.007 -0.288,0.165 -0.352,0.23 -0.065,0.065 -0.537,1.308 -0.585,1.338 0,0 -0.836,1.487 -0.941,1.586 0,0 -0.062,0.519 -0.11,0.55 0,0 -0.278,0.515 -0.325,0.546 0,0 -0.454,1.138 -0.645,1.478 0,0 -0.261,0.326 -0.114,0.489 l 0.236,0.24 c 0.169,0.155 0.793,0.36 0.977,0.042 0.494,-0.852 1.062,-1.757 1.062,-1.757 -0.014,-0.191 0.322,-0.519 0.385,-0.667 0,0 0.134,-0.291 0.171,-0.389 0,0 0.512,-1.173 0.551,-1.214 0,0 0.334,-0.666 0.375,-0.708 0,0 0.454,-0.721 0.449,-0.955 0,-0.233 -0.221,-0.531 -0.396,-0.692 -0.173,-0.157 -0.683,-0.109 -0.738,-0.117 z"
       id="path3187"
       style="fill:#1d1d1b" />
    <path
       d="m 409.49477,470.32325 c 0.013,-0.122 -0.074,-0.542 -0.123,-0.635 -0.049,-0.092 -0.171,-0.086 -0.238,-0.091 -0.066,-0.003 -0.731,-0.018 -0.87,-0.03 -0.14,-0.014 -0.616,-0.007 -0.75,-10e-4 -0.134,0.006 -0.785,0.235 -0.887,0.235 -0.103,-10e-4 -0.519,0.04 -0.624,0.046 -0.104,0.006 -0.247,0.008 -0.314,0.025 -0.068,0.017 -0.22,0.031 -0.3,0.029 -0.08,-0.004 -0.402,0.079 -0.505,0.107 -0.103,0.027 -0.565,0.12 -0.686,0.139 -0.121,0.018 -1.049,0.151 -1.131,0.154 -0.082,0.002 -0.372,0.067 -0.5,0.094 -0.13,0.027 -0.325,0.262 -0.451,0.375 -0.127,0.113 0.01,0.859 0.091,0.907 0.084,0.048 0.284,0.17 0.364,0.14 0.081,-0.03 0.129,-0.055 0.187,-0.073 0.059,-0.015 0.323,-0.075 0.5,-0.095 0.178,-0.02 0.489,-0.031 0.625,-0.046 0.134,-0.016 0.41,-0.068 0.512,-0.09 0.103,-0.022 0.364,-0.115 0.475,-0.106 0.11,0.008 0.521,-0.037 0.644,-0.054 0.124,-0.017 0.638,-0.086 0.812,-0.119 0.173,-0.033 0.693,-0.139 0.897,-0.161 0.206,-0.021 1.841,-0.187 2.03,-0.282 0.188,-0.094 0.227,-0.345 0.242,-0.468 z"
       id="path3189"
       style="fill:#1d1d1b" />
    <path
       d="m 416.51277,479.77225 c 0.099,-0.036 0.402,-0.144 0.465,-0.191 0.086,-0.064 0.23,-0.262 0.26,-0.345 0.032,-0.082 0.068,-0.206 0.08,-0.265 0.011,-0.059 -0.097,-0.271 -0.103,-0.302 -0.01,-0.032 -0.086,-0.074 -0.086,-0.074 l -0.069,-0.083 c -0.107,-0.111 -0.154,-0.162 -0.154,-0.162 -0.116,-0.094 -0.138,-0.081 -0.198,-0.104 -0.06,-0.021 -0.151,-0.011 -0.151,-0.011 0,0 -1.327,0.113 -1.347,0.159 0,0 -0.912,0.205 -0.985,0.187 -0.073,-0.019 -0.143,0.055 -0.209,0.042 -0.065,-0.014 -0.063,0.015 -0.148,0.022 -0.084,0.006 -0.129,0.067 -0.275,0.056 -0.146,-0.013 -0.861,0.004 -1.075,0.019 -0.214,0.015 -1.292,0.237 -1.482,0.312 -0.192,0.076 -0.687,0.164 -0.897,0.198 -0.209,0.033 -0.38,0.282 -0.47,0.418 -0.091,0.135 -0.054,0.423 0,0.56 0.057,0.137 0.057,0.342 0.146,0.442 0.09,0.101 0.602,0.044 0.722,0.022 0.118,-0.024 0.509,-0.064 0.649,-0.096 0.141,-0.033 0.15,-0.051 0.285,-0.042 0.135,0.008 0.411,0.006 0.531,-0.006 0.12,-0.011 0.71,-0.167 0.797,-0.191 0.086,-0.026 0.708,-0.096 0.623,-0.091 -0.085,0.003 1.021,-0.199 1.154,-0.215 0.134,-0.016 0.626,-0.02 0.787,-0.063 0.147,-0.043 1.102,-0.203 1.148,-0.196 z"
       id="path3191"
       style="fill:#1d1d1b" />
    <path
       d="m 396.09377,472.41025 c 0.1,-0.035 0.406,-0.139 0.47,-0.184 0.087,-0.061 0.232,-0.249 0.265,-0.328 0.033,-0.078 0.07,-0.194 0.082,-0.25 0.012,-0.055 -0.094,-0.254 -0.102,-0.284 -0.01,-0.03 -0.307,-0.296 -0.307,-0.296 -0.116,-0.088 -0.349,-0.104 -0.349,-0.104 0,0 -1.335,0.12 -1.356,0.163 0,0 -0.918,0.202 -0.992,0.185 -0.073,-0.016 -0.49,0.129 -0.637,0.119 -0.147,-0.01 -0.865,0.012 -1.081,0.029 -0.214,0.016 -1.298,0.236 -1.493,0.309 -0.193,0.073 -0.692,0.16 -0.903,0.194 -0.211,0.033 -0.385,0.27 -0.478,0.397 -0.092,0.129 -0.058,0.4 0,0.527 0.056,0.128 0.054,0.323 0.144,0.417 0.089,0.094 0.604,0.037 0.725,0.013 0.119,-0.023 0.513,-0.065 0.654,-0.097 0.141,-0.032 0.699,-0.041 0.82,-0.052 0.122,-0.013 0.717,-0.164 0.803,-0.189 0.086,-0.024 1.654,-0.288 1.789,-0.304 0.135,-0.016 0.629,-0.024 0.791,-0.067 0.149,-0.042 1.109,-0.204 1.157,-0.198 z"
       id="path3193"
       style="fill:#1d1d1b" />
    <path
       d="m 416.50577,479.77825 c 0.012,-0.003 0.013,-0.005 0.01,-0.006 -0.035,0.013 -0.046,0.018 -0.01,0.006 z"
       id="path3195"
       style="fill:#1d1d1b" />
    <path
       d="m 408.82577,478.15025 0.493,-0.657 c 0,0 0.352,-0.471 0.399,-0.577 0.046,-0.106 0.197,-0.758 0.245,-0.788 0,0 0.241,-0.472 0.285,-0.502 0,0 0.082,-0.178 0.144,-0.253 0,0 0.376,-0.858 0.438,-0.93 0,0 0.33,-0.813 0.366,-0.853 0,0 0.167,-0.336 0.23,-0.408 0,0 0.077,-0.466 0.076,-0.55 -0.001,-0.084 -0.057,-0.554 -0.302,-0.627 -0.245,-0.073 -0.338,-0.08 -0.511,-0.097 -0.174,-0.016 -0.43,0.106 -0.524,0.193 -0.095,0.085 -0.14,0.53 -0.203,0.604 0,0 -0.4,0.874 -0.472,0.937 0,0 -0.31,0.66 -0.41,0.757 0,0 -0.23,0.417 -0.285,0.502 -0.055,0.084 -0.044,0.499 -0.089,0.529 0,0 -0.251,0.494 -0.295,0.522 0,0 -0.463,1.281 -0.548,1.428 -0.085,0.148 -0.229,0.248 -0.255,0.326 -0.027,0.078 0.185,0.321 0.325,0.396 0.139,0.073 0.525,0.218 0.68,0.189 0.156,-0.028 0.213,-0.141 0.213,-0.141 z"
       id="path3197"
       style="fill:#1d1d1b" />
    <path
       d="m 413.26377,486.42225 c 0.102,0.115 -0.353,-0.411 -0.396,-0.484 l -0.194,-0.234 c 0,0 -0.233,-0.355 -0.283,-0.35 0,0 -0.441,-0.487 -0.381,-0.415 0.061,0.072 -0.583,-0.725 -0.519,-0.637 0.063,0.087 -0.464,-0.47 -0.583,-0.644 -0.121,-0.175 -0.271,-0.418 -0.514,-0.698 -0.244,-0.281 -0.477,-0.565 -0.611,-0.727 -0.132,-0.162 -0.403,-0.29 -0.403,-0.29 -0.098,-0.034 -0.335,-0.088 -0.444,-0.051 -0.109,0.039 -0.585,0.401 -0.554,0.381 0.03,-0.019 -0.034,0.039 -0.048,0.093 -0.014,0.055 -0.059,0.434 -0.029,0.529 0.028,0.093 0.531,0.777 0.767,1.005 0.237,0.227 0.518,0.604 0.628,0.702 0.111,0.097 0.584,0.817 0.672,0.906 0.088,0.087 0.166,0.304 0.244,0.396 0.077,0.092 0.83,0.883 0.975,1.042 0.145,0.159 0.244,0.265 0.303,0.296 0.06,0.03 0.211,0.272 0.294,0.332 0.083,0.06 0.173,0.128 0.285,0.151 0.11,0.022 0.495,-0.097 0.649,-0.135 0.153,-0.04 0.357,-0.164 0.43,-0.24 0.073,-0.077 0.085,-0.364 0.014,-0.509 -0.07,-0.144 -0.404,-0.536 -0.302,-0.419 z"
       id="path3199"
       style="fill:#1d1d1b" />
  </g>
</svg>
